<svg viewBox="0 0 22 22" fill="none" xmlns="http://www.w3.org/2000/svg">
<path d="M20.1666 10.0833H16.3441L19.3141 7.11325L18.0216 5.81159L13.7499 10.0833H11.9166V8.24992L16.1883 3.97825L14.8866 2.68575L11.9166 5.65575V1.83325H10.0833V5.65575L7.11325 2.68575L5.81159 3.97825L10.0833 8.24992V10.0833H8.24992L3.97825 5.81159L2.68575 7.11325L5.65575 10.0833H1.83325V11.9166H5.65575L2.68575 14.8866L3.97825 16.1883L8.24992 11.9166H10.0833V13.7499L5.81159 18.0216L7.11325 19.3141L10.0833 16.3441V20.1666H11.9166V16.3441L14.8866 19.3141L16.1883 18.0216L11.9166 13.7499V11.9166H13.7499L18.0216 16.1883L19.3141 14.8866L16.3441 11.9166H20.1666V10.0833Z" fill="#e5e7eb"/>
</svg>
