<svg viewBox="0 0 22 22" fill="none" xmlns="http://www.w3.org/2000/svg">
<path d="M18.3334 7.33341H15.5834V3.66675H2.75008C1.74175 3.66675 0.916748 4.49175 0.916748 5.50008V15.5834H2.75008C2.75008 17.1051 3.97841 18.3334 5.50008 18.3334C7.02175 18.3334 8.25008 17.1051 8.25008 15.5834H13.7501C13.7501 17.1051 14.9784 18.3334 16.5001 18.3334C18.0217 18.3334 19.2501 17.1051 19.2501 15.5834H21.0834V11.0001L18.3334 7.33341ZM5.50008 16.9584C4.73925 16.9584 4.12508 16.3442 4.12508 15.5834C4.12508 14.8226 4.73925 14.2084 5.50008 14.2084C6.26091 14.2084 6.87508 14.8226 6.87508 15.5834C6.87508 16.3442 6.26091 16.9584 5.50008 16.9584ZM17.8751 8.70841L19.6717 11.0001H15.5834V8.70841H17.8751ZM16.5001 16.9584C15.7392 16.9584 15.1251 16.3442 15.1251 15.5834C15.1251 14.8226 15.7392 14.2084 16.5001 14.2084C17.2609 14.2084 17.8751 14.8226 17.8751 15.5834C17.8751 16.3442 17.2609 16.9584 16.5001 16.9584Z" fill="#e5e7eb"/>
</svg>
