<svg viewBox="0 0 22 22" fill="none" xmlns="http://www.w3.org/2000/svg">
<path d="M18.1411 4.02403C17.9383 3.42583 17.3706 3 16.7014 3H5.54861C4.87944 3 4.32181 3.42583 4.10889 4.02403L2 10.0972V18.2083C2 18.766 2.45625 19.2222 3.01389 19.2222H4.02778C4.58542 19.2222 5.04167 18.766 5.04167 18.2083V17.1944H17.2083V18.2083C17.2083 18.766 17.6646 19.2222 18.2222 19.2222H19.2361C19.7937 19.2222 20.25 18.766 20.25 18.2083V10.0972L18.1411 4.02403ZM5.54861 14.1528C4.70708 14.1528 4.02778 13.4735 4.02778 12.6319C4.02778 11.7904 4.70708 11.1111 5.54861 11.1111C6.39014 11.1111 7.06944 11.7904 7.06944 12.6319C7.06944 13.4735 6.39014 14.1528 5.54861 14.1528ZM16.7014 14.1528C15.8599 14.1528 15.1806 13.4735 15.1806 12.6319C15.1806 11.7904 15.8599 11.1111 16.7014 11.1111C17.5429 11.1111 18.2222 11.7904 18.2222 12.6319C18.2222 13.4735 17.5429 14.1528 16.7014 14.1528ZM4.02778 9.08333L5.54861 4.52083H16.7014L18.2222 9.08333H4.02778Z" fill="#e5e7eb"/>
</svg>
