<svg xmlns="http://www.w3.org/2000/svg" xml:space="preserve" width="793px" height="189px" version="1.1" shape-rendering="geometricPrecision" text-rendering="geometricPrecision" image-rendering="optimizeQuality" fill-rule="evenodd" clip-rule="evenodd"
viewBox="0 0 226.04 53.88"
 xmlns:xlink="http://www.w3.org/1999/xlink">
 <g id="Layer_x0020_1">
  <metadata id="CorelCorpID_0Corel-Layer"/>
  <g id="_1931068786464">
   <path fill="white" fill-rule="nonzero" d="M222.38 35.24c0,8.27 -6.73,14.98 -14.99,14.98l-92.46 0 0 -46.55 92.46 -0.01c8.26,0 14.99,6.72 14.99,14.98l0 16.6zm-77.35 5.07l-4.99 0 11.13 -26.22 5.22 0 11.37 26.22 -5.23 0 -2.98 -7.15 -1.76 -4.22 -4.13 -9.84 -8.63 21.21zm40.33 -26.22l0 4.22 -7.52 0 0 22 -4.86 0 0 -22 -7.51 0 0 -4.22 19.89 0zm2.69 26.22l-4.98 0 11.12 -26.22 5.23 0 11.36 26.22 -5.22 0 -2.99 -7.15 -1.76 -4.22 -4.12 -9.84 -8.64 21.21zm-62.85 -4.22c5.43,0 8.15,-3.2 8.15,-9.6 0,-5.46 -2.72,-8.18 -8.15,-8.18l-5.41 0 0 17.78 5.41 0zm-10.27 4.22l0 -26.22 10.27 0c8.67,0 13.01,4.13 13.01,12.4 0,9.21 -4.34,13.82 -13.01,13.82l-10.27 0zm-69.88 1.34l-5.09 0 -7.95 -22.68 -8.54 22.68 -5.02 0 -4.76 -28.91 5.45 0 3.09 20.77 7.52 -20.77 5.16 0 7.03 19.96 3.28 -19.96 5.27 0 -5.44 28.91zm37.23 0l-5.76 0 -3.3 -7.88 -1.93 -4.65 -4.56 -10.86 -9.51 23.39 -5.51 0 12.27 -28.91 5.77 0 12.53 28.91zm-2.52 -28.91l5.76 0 8.13 13.93 8.14 -13.93 5.75 0 -11.09 18.81 0 10.11 -5.59 0 0 -10.11 -11.1 -18.81zm144.71 -1.54c-2.86,-6.59 -9.44,-11.2 -17.08,-11.2l-188.75 0c-4.14,0 -7.98,1.36 -11.07,3.66 -2.58,1.91 -4.64,4.47 -5.96,7.43 -0.02,0.04 -0.03,0.09 -0.05,0.13 -0.62,1.39 -1.04,2.86 -1.29,4.4 -0.16,0.98 -0.27,1.99 -0.27,3.02l0 16.6c0,7.07 3.95,13.23 9.76,16.39 2.64,1.43 5.67,2.25 8.88,2.25l96.29 0 0 0 92.46 0c10.28,0 18.65,-8.36 18.65,-18.64l0 -16.6c0,-2.65 -0.55,-5.16 -1.57,-7.44z"/>
  </g>
 </g>
</svg>