<svg viewBox="0 0 22 22" fill="none" xmlns="http://www.w3.org/2000/svg">
<path d="M17.3098 9.89293C17.163 9.89293 17.0162 9.91739 16.8775 9.9337L15.1976 8.26195H17.3098V5.81549L14.2761 7.3323L11.9357 5H8.33939V6.63098H11.267L12.898 8.26195H9.97037L6.70842 9.89293L5.07744 8.26195H1V9.89293H4.26195C2.45972 9.89293 1 11.3527 1 13.1549C1 14.9571 2.45972 16.4168 4.26195 16.4168C6.06418 16.4168 7.5239 14.9571 7.5239 13.1549L9.15488 14.7859H11.6013L14.4474 9.81138L15.271 10.635C14.5289 11.2303 14.0478 12.1355 14.0478 13.1549C14.0478 14.9571 15.5075 16.4168 17.3098 16.4168C19.112 16.4168 20.5717 14.9571 20.5717 13.1549C20.5717 11.3527 19.112 9.89293 17.3098 9.89293ZM4.26195 14.7859C3.36491 14.7859 2.63098 14.0519 2.63098 13.1549C2.63098 12.2578 3.36491 11.5239 4.26195 11.5239C5.15899 11.5239 5.89293 12.2578 5.89293 13.1549C5.89293 14.0519 5.15899 14.7859 4.26195 14.7859ZM17.3098 14.7859C16.4127 14.7859 15.6788 14.0519 15.6788 13.1549C15.6788 12.2578 16.4127 11.5239 17.3098 11.5239C18.2068 11.5239 18.9407 12.2578 18.9407 13.1549C18.9407 14.0519 18.2068 14.7859 17.3098 14.7859Z" fill="#e5e7eb"/>
</svg>
